<svg width="15" height="12" viewBox="0 0 15 12" fill="none" xmlns="http://www.w3.org/2000/svg">
<path d="M5.3 6.35346C5.20626 6.2597 5.15361 6.13254 5.15361 5.99996C5.15361 5.86738 5.20626 5.74022 5.3 5.64646L7.5925 3.35346C7.68358 3.25916 7.73398 3.13286 7.73284 3.00176C7.7317 2.87066 7.67911 2.74525 7.58641 2.65255C7.4937 2.55985 7.3683 2.50726 7.2372 2.50612C7.1061 2.50498 6.9798 2.55538 6.8855 2.64646L4.5945 4.93946C4.31329 5.22075 4.15532 5.60221 4.15532 5.99996C4.15532 6.39771 4.31329 6.77917 4.5945 7.06046L6.8875 9.35346C6.9818 9.44454 7.1081 9.49494 7.2392 9.4938C7.3703 9.49266 7.4957 9.44007 7.58841 9.34737C7.68111 9.25466 7.7337 9.12926 7.73484 8.99816C7.73598 8.86706 7.68558 8.74076 7.5945 8.64646L5.3 6.35346Z" fill="#9A9A9A" fill-opacity="0.63"/>
<path d="M8.3 6.35346C8.20626 6.2597 8.15361 6.13254 8.15361 5.99996C8.15361 5.86738 8.20626 5.74022 8.3 5.64646L10.5925 3.35346C10.6836 3.25916 10.734 3.13286 10.7328 3.00176C10.7317 2.87066 10.6791 2.74525 10.5864 2.65255C10.4937 2.55985 10.3683 2.50726 10.2372 2.50612C10.1061 2.50498 9.9798 2.55538 9.8855 2.64646L7.5945 4.93946C7.31329 5.22075 7.15532 5.60221 7.15532 5.99996C7.15532 6.39771 7.31329 6.77917 7.5945 7.06046L9.8875 9.35346C9.9818 9.44454 10.1081 9.49494 10.2392 9.4938C10.3703 9.49266 10.4957 9.44007 10.5884 9.34737C10.6811 9.25466 10.7337 9.12926 10.7348 8.99816C10.736 8.86706 10.6856 8.74076 10.5945 8.64646L8.3 6.35346Z" fill="#9A9A9A" fill-opacity="0.63"/>
</svg>
