<svg width="14" height="14" viewBox="0 0 14 14" fill="none" xmlns="http://www.w3.org/2000/svg">
<g opacity="0.4" clip-path="url(#clip0_120_2472)">
<path d="M3.90684 5.83691H2.2143C2.07056 5.83691 1.95422 5.94286 1.95422 6.07376V7.61514C1.95422 7.74588 2.07056 7.85198 2.2143 7.85198H3.90684C4.05057 7.85198 4.16691 7.74588 4.16691 7.61514V6.07376C4.16691 5.94302 4.05057 5.83691 3.90684 5.83691ZM3.64677 7.37829H2.47437V6.3106H3.64677V7.37829Z" fill="#1C1C1C" fill-opacity="0.8"/>
<path d="M7.85441 5.83691H6.16187C6.01813 5.83691 5.90179 5.94286 5.90179 6.07376V7.61514C5.90179 7.74588 6.01813 7.85198 6.16187 7.85198H7.85441C7.99797 7.85198 8.11448 7.74588 8.11448 7.61514V6.07376C8.11448 5.94302 7.99797 5.83691 7.85441 5.83691ZM7.59434 7.37829H6.42194V6.3106H7.59434V7.37829Z" fill="#1C1C1C" fill-opacity="0.8"/>
<path d="M11.6802 5.83691H9.98761C9.84405 5.83691 9.72754 5.94286 9.72754 6.07376V7.61514C9.72754 7.74588 9.84405 7.85198 9.98761 7.85198H11.6802C11.8237 7.85198 11.9402 7.74588 11.9402 7.61514V6.07376C11.9402 5.94302 11.8237 5.83691 11.6802 5.83691ZM11.4201 7.37829H10.2477V6.3106H11.4201V7.37829Z" fill="#1C1C1C" fill-opacity="0.8"/>
<path d="M3.90684 9.34814H2.2143C2.07056 9.34814 1.95422 9.45425 1.95422 9.58499V11.1264C1.95422 11.2571 2.07056 11.3632 2.2143 11.3632H3.90684C4.05057 11.3632 4.16691 11.2571 4.16691 11.1264V9.58499C4.16691 9.45425 4.05057 9.34814 3.90684 9.34814ZM3.64677 10.8895H2.47437V9.82183H3.64677V10.8895Z" fill="#1C1C1C" fill-opacity="0.8"/>
<path d="M7.85441 9.34814H6.16187C6.01813 9.34814 5.90179 9.45425 5.90179 9.58499V11.1264C5.90179 11.2571 6.01813 11.3632 6.16187 11.3632H7.85441C7.99797 11.3632 8.11448 11.2571 8.11448 11.1264V9.58499C8.11448 9.45425 7.99797 9.34814 7.85441 9.34814ZM7.59434 10.8895H6.42194V9.82183H7.59434V10.8895Z" fill="#1C1C1C" fill-opacity="0.8"/>
<path d="M11.6802 9.34814H9.98761C9.84405 9.34814 9.72754 9.45425 9.72754 9.58499V11.1264C9.72754 11.2571 9.84405 11.3632 9.98761 11.3632H11.6802C11.8237 11.3632 11.9402 11.2571 11.9402 11.1264V9.58499C11.9402 9.45425 11.8237 9.34814 11.6802 9.34814ZM11.4201 10.8895H10.2477V9.82183H11.4201V10.8895Z" fill="#1C1C1C" fill-opacity="0.8"/>
<path d="M13.7399 1.25054H12.0222C12.02 1.25054 12.0181 1.25101 12.0158 1.25117V0.935691C12.0158 0.419687 11.555 0 10.9884 0C10.4218 0 9.96092 0.419845 9.96092 0.935691V1.25054H8.02546V0.935691C8.02546 0.419687 7.56461 0 6.99801 0C6.4314 0 5.97055 0.419845 5.97055 0.935691V1.25054H4.03492V0.935691C4.03492 0.419687 3.57408 0 3.00747 0C2.44086 0 1.98001 0.419845 1.98001 0.935691V1.25069C1.97914 1.25069 1.97828 1.25054 1.97741 1.25054H0.260072C0.116339 1.25054 0 1.35648 0 1.48738V13.7632C0 13.8939 0.116339 14 0.260072 14H13.7399C13.8835 14 14 13.8939 14 13.7632V1.48738C14 1.35648 13.8835 1.25054 13.7399 1.25054ZM10.4811 0.935691C10.4811 0.680847 10.7085 0.473688 10.9884 0.473688C11.2682 0.473688 11.4957 0.680847 11.4957 0.935691V2.2426C11.4957 2.49728 11.2682 2.7046 10.9884 2.7046C10.7085 2.7046 10.4811 2.49744 10.4811 2.2426V0.935691ZM6.99801 0.473688C7.27767 0.473688 7.50532 0.680847 7.50532 0.935691V2.2426C7.50532 2.49728 7.27784 2.7046 6.99801 2.7046C6.71817 2.7046 6.49069 2.49744 6.49069 2.2426V1.50949C6.49139 1.50206 6.49312 1.49496 6.49312 1.48722C6.49312 1.47948 6.49139 1.47238 6.49069 1.46496V0.935691C6.49069 0.680847 6.71817 0.473688 6.99801 0.473688ZM2.50015 0.935691C2.50015 0.680847 2.72763 0.473688 3.00747 0.473688C3.28713 0.473688 3.51478 0.680847 3.51478 0.935691V2.2426C3.51478 2.49728 3.2873 2.7046 3.00747 2.7046C2.72763 2.7046 2.50015 2.49744 2.50015 2.2426V0.935691ZM13.4799 13.5263H0.520143V1.72422H1.97741C1.97828 1.72422 1.97914 1.72407 1.98001 1.72407V2.24275C1.98001 2.75876 2.44103 3.17845 3.00747 3.17845C3.5739 3.17845 4.03492 2.75876 4.03492 2.24275V1.72438H5.97055V2.24275C5.97055 2.75876 6.43157 3.17845 6.99801 3.17845C7.56444 3.17845 8.02546 2.75876 8.02546 2.24275V1.72438H9.96092V2.24275C9.96092 2.75876 10.4218 3.17845 10.9884 3.17845C11.555 3.17845 12.0158 2.75876 12.0158 2.24275V1.72359C12.0181 1.72359 12.02 1.72422 12.0222 1.72422H13.4799V13.5263Z" fill="#1C1C1C" fill-opacity="0.8"/>
</g>
<defs>
<clipPath id="clip0_120_2472">
<rect width="14" height="14" fill="white"/>
</clipPath>
</defs>
</svg>
