<svg width="32" height="32" viewBox="0 0 32 32" fill="none" xmlns="http://www.w3.org/2000/svg">
<path d="M29.3334 15.4226C29.3334 22.4669 23.363 28.1782 16 28.1782C15.1343 28.1794 14.271 28.0993 13.4206 27.9397C12.8085 27.8246 12.5024 27.7671 12.2887 27.7998C12.075 27.8325 11.7723 27.9934 11.1667 28.3155C9.45354 29.2266 7.45595 29.5483 5.53483 29.191C6.26501 28.2929 6.76369 27.2153 6.98373 26.0601C7.11706 25.3534 6.78669 24.667 6.29187 24.1645C4.04446 21.8823 2.66669 18.8071 2.66669 15.4226C2.66669 8.37842 8.63706 2.66699 16 2.66699C23.363 2.66699 29.3334 8.37842 29.3334 15.4226Z" stroke="#2B8D7A" stroke-width="2" stroke-linejoin="round"/>
<path d="M15.994 16H16.006M21.3214 16H21.3334M10.6667 16H10.6786" stroke="#2B8D7A" stroke-width="2.5" stroke-linecap="round" stroke-linejoin="round"/>
</svg>
