<svg width="25" height="25" viewBox="0 0 25 25" fill="none" xmlns="http://www.w3.org/2000/svg">
<path d="M20 6.03125L19.3803 16.0563C19.2219 18.6176 19.1428 19.8984 18.5008 20.8192C18.1833 21.2744 17.7747 21.6586 17.3007 21.9473C16.3421 22.5313 15.059 22.5312 12.4927 22.5312C9.92312 22.5312 8.6383 22.5312 7.67905 21.9461C7.2048 21.6569 6.796 21.272 6.47868 20.816C5.83688 19.8938 5.75945 18.6113 5.60461 16.0464L5 6.03125" stroke="#D32F2F" stroke-width="1.5" stroke-linecap="round"/>
<path d="M3.5 6.03125H21.5M16.5557 6.03125L15.8731 4.62298C15.4196 3.68751 15.1928 3.21977 14.8017 2.92806C14.715 2.86335 14.6231 2.80579 14.527 2.75595C14.0939 2.53125 13.5741 2.53125 12.5345 2.53125C11.4688 2.53125 10.936 2.53125 10.4957 2.76537C10.3981 2.81726 10.305 2.87715 10.2173 2.94442C9.82164 3.24795 9.60063 3.7328 9.15861 4.70251L8.55292 6.03125" stroke="#D32F2F" stroke-width="1.5" stroke-linecap="round"/>
<path d="M10 17.0312V11.0312" stroke="#D32F2F" stroke-width="1.5" stroke-linecap="round"/>
<path d="M15 17.0312V11.0312" stroke="#D32F2F" stroke-width="1.5" stroke-linecap="round"/>
</svg>
