<svg width="13" height="11" viewBox="0 0 13 11" fill="none" xmlns="http://www.w3.org/2000/svg">
<g opacity="0.4" clip-path="url(#clip0_120_2506)">
<path d="M11.7812 10.2142H1.21875C0.544375 10.2142 0 9.68779 0 9.03564V1.96422C0 1.31207 0.544375 0.785645 1.21875 0.785645H11.7812C12.4556 0.785645 13 1.31207 13 1.96422V9.03564C13 9.68779 12.4556 10.2142 11.7812 10.2142ZM1.21875 1.57136C0.99125 1.57136 0.8125 1.74422 0.8125 1.96422V9.03564C0.8125 9.25564 0.99125 9.4285 1.21875 9.4285H11.7812C12.0087 9.4285 12.1875 9.25564 12.1875 9.03564V1.96422C12.1875 1.74422 12.0087 1.57136 11.7812 1.57136H1.21875Z" fill="#1C1C1C" fill-opacity="0.8"/>
<path d="M6.50003 7.03995C5.93128 7.03995 5.41128 6.81995 5.02128 6.41924L0.755654 2.03495C0.601279 1.87781 0.609404 1.62638 0.771904 1.4771C0.934404 1.32781 1.1944 1.33567 1.34878 1.49281L5.6144 5.8771C6.07753 6.35638 6.92253 6.35638 7.38565 5.8771L11.6513 1.50067C11.8057 1.34353 12.0657 1.33567 12.2282 1.48495C12.3907 1.63424 12.3988 1.88567 12.2444 2.04281L7.97878 6.4271C7.58878 6.82781 7.06878 7.04781 6.50003 7.04781V7.03995Z" fill="#1C1C1C" fill-opacity="0.8"/>
</g>
<defs>
<clipPath id="clip0_120_2506">
<rect width="13" height="11" fill="white"/>
</clipPath>
</defs>
</svg>
