<svg width="15" height="15" viewBox="0 0 15 15" fill="none" xmlns="http://www.w3.org/2000/svg">
<g opacity="0.4" clip-path="url(#clip0_126_1564)">
<path d="M2.83118 13.636H6.95566V8.9232V8.9184V6.948H6.43184H3.35583H2.832V13.636H2.83118ZM7.14404 14H2.64362H2.18755C2.08427 14 2 13.9184 2 13.8184C2 13.7184 2.08427 13.6368 2.18755 13.6368H2.45607V6.7672C2.45607 6.6672 2.54035 6.5856 2.64362 6.5856H3.16745V5.472C3.16745 5.372 3.25172 5.2904 3.355 5.2904H3.8309V4.0912C3.8309 3.9912 3.91517 3.9096 4.01845 3.9096H4.70504V2.1816C4.70504 2.0816 4.78931 2 4.89259 2C4.99587 2 5.08014 2.0816 5.08014 2.1816V3.908H5.76673C5.87001 3.908 5.95428 3.9896 5.95428 4.0896V5.2888H6.43018C6.53346 5.2888 6.61774 5.3704 6.61774 5.4704V6.584H7.14156C7.24566 6.584 7.32911 6.6656 7.32911 6.7656V8.7408H8.80969V5.3232V3.4936V2.1816C8.80969 2.0816 8.89397 2 8.99725 2C9.10052 2 9.1848 2.0816 9.1848 2.1816V3.3432L12.322 3.924C12.4145 3.9352 12.4864 4.012 12.4864 4.104V5.784L13.3795 5.9496C13.472 5.9608 13.5439 6.0376 13.5439 6.1296V13.6352H13.8124C13.9157 13.6352 14 13.7168 14 13.8168C14 13.9168 13.9157 13.9984 13.8124 13.9984H13.3564H8.99807H7.14404V14ZM7.33159 9.1048V13.636H8.80969V9.1048H7.33159ZM3.54338 6.5848H6.24429V5.6528H5.76838H4.01928H3.54338V6.5848ZM4.20683 5.2896H5.58001V4.272H4.89342H4.20683V5.2896ZM9.18562 8.9232V13.636H13.1688V6.28L12.2649 6.1128H12.2633L9.18562 5.5432V8.9232ZM9.18562 5.1736L12.1113 5.7152V4.2544L9.18562 3.7128V5.1736ZM3.41531 7.8752C3.41531 7.7752 3.49959 7.6936 3.60286 7.6936C3.70614 7.6936 3.79042 7.7752 3.79042 7.8752V8.2392C3.79042 8.3392 3.70614 8.4208 3.60286 8.4208C3.49959 8.4208 3.41531 8.3392 3.41531 8.2392V7.8752ZM5.99725 7.8752C5.99725 7.7752 6.08152 7.6936 6.1848 7.6936C6.28808 7.6936 6.37235 7.7752 6.37235 7.8752V8.2392C6.37235 8.3392 6.28808 8.4208 6.1848 8.4208C6.08152 8.4208 5.99725 8.3392 5.99725 8.2392V7.8752ZM4.70587 7.8752C4.70587 7.7752 4.79014 7.6936 4.89342 7.6936C4.9967 7.6936 5.08097 7.7752 5.08097 7.8752V8.2392C5.08097 8.3392 4.9967 8.4208 4.89342 8.4208C4.79014 8.4208 4.70587 8.3392 4.70587 8.2392V7.8752ZM3.41531 9.432C3.41531 9.332 3.49959 9.2504 3.60286 9.2504C3.70614 9.2504 3.79042 9.332 3.79042 9.432V9.796C3.79042 9.896 3.70614 9.9776 3.60286 9.9776C3.49959 9.9776 3.41531 9.896 3.41531 9.796V9.432ZM5.99725 9.432C5.99725 9.332 6.08152 9.2504 6.1848 9.2504C6.28808 9.2504 6.37235 9.332 6.37235 9.432V9.796C6.37235 9.896 6.28808 9.9776 6.1848 9.9776C6.08152 9.9776 5.99725 9.896 5.99725 9.796V9.432ZM4.70587 9.432C4.70587 9.332 4.79014 9.2504 4.89342 9.2504C4.9967 9.2504 5.08097 9.332 5.08097 9.432V9.796C5.08097 9.896 4.9967 9.9776 4.89342 9.9776C4.79014 9.9776 4.70587 9.896 4.70587 9.796V9.432ZM3.41531 10.9888C3.41531 10.8888 3.49959 10.8072 3.60286 10.8072C3.70614 10.8072 3.79042 10.8888 3.79042 10.9888V11.3528C3.79042 11.4528 3.70614 11.5344 3.60286 11.5344C3.49959 11.5344 3.41531 11.4528 3.41531 11.3528V10.9888ZM5.99725 10.9888C5.99725 10.8888 6.08152 10.8072 6.1848 10.8072C6.28808 10.8072 6.37235 10.8888 6.37235 10.9888V11.3528C6.37235 11.4528 6.28808 11.5344 6.1848 11.5344C6.08152 11.5344 5.99725 11.4528 5.99725 11.3528V10.9888ZM4.70587 10.9888C4.70587 10.8888 4.79014 10.8072 4.89342 10.8072C4.9967 10.8072 5.08097 10.8888 5.08097 10.9888V11.3528C5.08097 11.4528 4.9967 11.5344 4.89342 11.5344C4.79014 11.5344 4.70587 11.4528 4.70587 11.3528V10.9888ZM10.1622 7.1024C10.1622 7.0024 10.2465 6.9208 10.3498 6.9208C10.453 6.9208 10.5373 7.0024 10.5373 7.1024V7.4664C10.5373 7.5664 10.453 7.648 10.3498 7.648C10.2457 7.648 10.1622 7.5664 10.1622 7.4664V7.1024ZM11.8163 7.1024C11.8163 7.0024 11.9006 6.9208 12.0039 6.9208C12.1071 6.9208 12.1914 7.0024 12.1914 7.1024V7.4664C12.1914 7.5664 12.1071 7.648 12.0039 7.648C11.9006 7.648 11.8163 7.5664 11.8163 7.4664V7.1024ZM10.1622 8.5568C10.1622 8.4568 10.2465 8.3752 10.3498 8.3752C10.453 8.3752 10.5373 8.4568 10.5373 8.5568V8.9208C10.5373 9.0208 10.453 9.1024 10.3498 9.1024C10.2457 9.1024 10.1622 9.0208 10.1622 8.9208V8.5568ZM11.8163 8.5568C11.8163 8.4568 11.9006 8.3752 12.0039 8.3752C12.1071 8.3752 12.1914 8.4568 12.1914 8.5568V8.9208C12.1914 9.0208 12.1071 9.1024 12.0039 9.1024C11.9006 9.1024 11.8163 9.0208 11.8163 8.9208V8.5568ZM10.1622 10.0112C10.1622 9.9112 10.2465 9.8296 10.3498 9.8296C10.453 9.8296 10.5373 9.9112 10.5373 10.0112V10.3752C10.5373 10.4752 10.453 10.5568 10.3498 10.5568C10.2457 10.5568 10.1622 10.4752 10.1622 10.3752V10.0112ZM11.8163 10.0112C11.8163 9.9112 11.9006 9.8296 12.0039 9.8296C12.1071 9.8296 12.1914 9.9112 12.1914 10.0112V10.3752C12.1914 10.4752 12.1071 10.5568 12.0039 10.5568C11.9006 10.5568 11.8163 10.4752 11.8163 10.3752V10.0112ZM10.1622 11.4664C10.1622 11.3664 10.2465 11.2848 10.3498 11.2848C10.453 11.2848 10.5373 11.3664 10.5373 11.4664V11.8304C10.5373 11.9304 10.453 12.012 10.3498 12.012C10.2457 12.012 10.1622 11.9304 10.1622 11.8304V11.4664Z" fill="#1C1C1C" fill-opacity="0.8"/>
</g>
<defs>
<clipPath id="clip0_126_1564">
<rect width="15" height="15" fill="white"/>
</clipPath>
</defs>
</svg>
