<svg width="24" height="22" viewBox="0 0 24 22" fill="none" xmlns="http://www.w3.org/2000/svg">
<path d="M16.76 7.57345C16.76 8.90794 16.76 10.2353 16.76 11.5698C16.76 13.0684 16.7671 14.5742 16.76 16.0728C16.76 16.2726 16.8169 16.3226 17.0091 16.3226C18.3823 16.3154 19.7484 16.3154 21.1216 16.3154C21.1928 16.3154 21.2853 16.294 21.3279 16.3297C21.4062 16.3868 21.5201 16.4867 21.5129 16.5652C21.5129 16.6437 21.392 16.7293 21.3066 16.7793C21.2568 16.8078 21.1714 16.7864 21.1003 16.7864C19.7128 16.7864 18.3325 16.7864 16.945 16.7864C16.7885 16.7864 16.7102 16.8292 16.6533 16.9862C16.4398 17.5714 15.9062 17.9639 15.2801 17.9639C13.0886 17.971 10.89 17.971 8.69857 17.9639C8.07956 17.9639 7.54592 17.5643 7.33247 16.9791C7.27555 16.8292 7.20439 16.7936 7.05498 16.7936C5.68175 16.8007 4.31565 16.7936 2.94242 16.7936C2.89973 16.7936 2.85704 16.7936 2.81435 16.7936C2.57244 16.7936 2.4586 16.7151 2.4586 16.5581C2.4586 16.4011 2.57244 16.3226 2.81435 16.3226C4.2018 16.3226 5.58214 16.3154 6.96959 16.3297C7.17593 16.3297 7.23285 16.2726 7.23285 16.0657C7.22574 14.9524 7.23285 13.8463 7.23285 12.733C7.23285 9.70007 7.23285 6.66714 7.23285 3.63421C7.23285 2.62086 7.85899 2 8.87645 2C10.9612 2 13.0388 2 15.1235 2C16.1268 2 16.76 2.63513 16.76 3.64135C16.7671 4.95443 16.76 6.26037 16.76 7.57345ZM16.2904 7.21664C16.2904 6.0106 16.2904 4.8117 16.2904 3.60567C16.2904 2.91345 15.8564 2.48527 15.1734 2.48527C13.0815 2.48527 10.9825 2.48527 8.89068 2.48527C8.12225 2.48527 7.71668 2.89204 7.71668 3.65562C7.71668 6.7171 7.71668 9.77857 7.71668 12.8329C7.71668 13.989 7.71668 15.1379 7.71668 16.294C7.71668 17.0861 8.11513 17.4929 8.91203 17.4929C10.9754 17.4929 13.0459 17.4929 15.1093 17.4929C15.8849 17.4929 16.2904 17.079 16.2904 16.3011C16.2904 14.46 16.2904 12.6188 16.2904 10.7777C16.2904 9.59303 16.2904 8.40126 16.2904 7.21664Z" fill="#0060FF" stroke="#0060FF" stroke-width="0.289946" stroke-miterlimit="10"/>
<path d="M23 13.0256C23 15.1379 23 17.2574 23 19.3698C23 20.3688 22.3739 20.9968 21.3706 20.9968C19.2788 20.9968 17.194 20.9968 15.1022 20.9968C14.099 20.9968 13.4728 20.3688 13.4728 19.3698C13.4728 19.1485 13.4728 18.9273 13.4728 18.7061C13.4728 18.5348 13.5298 18.3992 13.7219 18.4064C13.8997 18.4135 13.9495 18.5419 13.9495 18.7061C13.9495 18.9558 13.9495 19.2056 13.9495 19.4554C13.9567 20.0834 14.3836 20.5116 15.0097 20.5187C15.9133 20.5258 16.8169 20.5187 17.7135 20.5187C18.9301 20.5187 20.1397 20.5187 21.3564 20.5187C22.1035 20.5187 22.5091 20.1048 22.5091 19.3555C22.5091 15.1308 22.5091 10.9061 22.5091 6.68855C22.5091 5.92496 22.0964 5.51819 21.3351 5.51819C20.0259 5.51819 18.7238 5.51819 17.4146 5.51819C17.3364 5.51819 17.2439 5.53247 17.1869 5.49678C17.1158 5.45397 17.0162 5.35406 17.0233 5.28983C17.0304 5.2042 17.1158 5.11142 17.194 5.05433C17.2439 5.01865 17.3292 5.04006 17.4004 5.04006C18.738 5.04006 20.0686 5.04006 21.4062 5.04006C22.3383 5.04006 22.9858 5.68233 22.9858 6.62432C23 8.75807 23 10.8918 23 13.0256Z" fill="#0060FF" stroke="#0060FF" stroke-width="0.289946" stroke-miterlimit="10"/>
<path d="M1 13.0111C1 10.9059 1 8.79357 1 6.68836C1 5.64646 1.61902 5.03274 2.65783 5.03274C3.95278 5.03274 5.24062 5.03274 6.53558 5.03274C6.60673 5.03274 6.69211 5.01133 6.74192 5.04701C6.82018 5.1041 6.9198 5.19687 6.9198 5.26823C6.9198 5.34673 6.82018 5.43951 6.74192 5.48946C6.685 5.52514 6.5925 5.50373 6.51423 5.50373C5.21216 5.50373 3.91721 5.50373 2.61514 5.50373C1.89651 5.50373 1.4696 5.92477 1.4696 6.64554C1.4696 10.8988 1.4696 15.152 1.4696 19.4052C1.4696 20.0832 1.89651 20.5185 2.57245 20.5185C4.69276 20.5257 6.80595 20.5257 8.92627 20.5185C9.63066 20.5185 10.0362 20.0975 10.0433 19.3981C10.0433 19.1769 10.0433 18.9557 10.0433 18.7344C10.0433 18.5132 10.1287 18.3919 10.2853 18.4062C10.4916 18.4204 10.5201 18.5774 10.5201 18.7416C10.5201 18.9771 10.5201 19.2126 10.5201 19.4481C10.5129 20.3472 9.86546 20.9966 8.96896 20.9966C7.55304 21.0038 6.14425 20.9966 4.72833 20.9966C4.0097 20.9966 3.29107 20.9966 2.57245 20.9966C1.64748 20.9895 1 20.3472 1 19.4195C1 17.2858 1 15.152 1 13.0111Z" fill="#0060FF" stroke="#0060FF" stroke-width="0.289946" stroke-miterlimit="10"/>
<path d="M3.56144 12.9615C3.61836 12.6047 3.68239 12.1979 3.76066 11.8055C3.79624 11.6199 3.76778 11.4843 3.61836 11.3487C3.34798 11.1061 3.09895 10.8421 2.83569 10.5923C2.62935 10.3996 2.5582 10.1641 2.63647 9.89292C2.72185 9.60747 2.92107 9.46475 3.2128 9.42193C3.5899 9.36484 3.967 9.30775 4.35122 9.25779C4.49352 9.23638 4.5789 9.17216 4.63582 9.0437C4.79947 8.70116 4.96312 8.36576 5.13388 8.03035C5.26196 7.76631 5.46829 7.60931 5.77425 7.61644C6.06597 7.62358 6.25808 7.78058 6.38615 8.03749C6.5498 8.38003 6.71344 8.71543 6.88421 9.05084C6.95536 9.2007 6.99094 9.33629 6.82017 9.4362C6.68498 9.5147 6.55691 9.45047 6.4573 9.25066C6.30077 8.93666 6.15846 8.62266 5.99482 8.3158C5.94501 8.22303 5.83828 8.08744 5.77425 8.10171C5.68175 8.11599 5.58214 8.23017 5.53233 8.32294C5.36157 8.63693 5.21215 8.95807 5.05562 9.2792C4.92754 9.55038 4.7212 9.68597 4.42948 9.72165C4.06661 9.76447 3.69662 9.82156 3.33375 9.88579C3.24837 9.90006 3.14164 9.96429 3.11318 10.0357C3.09184 10.0927 3.14876 10.2069 3.20568 10.2711C3.48317 10.5566 3.76066 10.8421 4.0595 11.1061C4.28007 11.3059 4.31564 11.5343 4.26584 11.7983C4.19468 12.1765 4.12353 12.5476 4.0595 12.9259C4.02392 13.1328 4.16622 13.247 4.35122 13.1542C4.69274 12.9829 5.0485 12.8188 5.36868 12.6119C5.6106 12.4549 5.83828 12.4549 6.07308 12.569C6.315 12.6832 6.5498 12.8188 6.79171 12.9401C6.93401 13.0115 6.99805 13.1328 6.91978 13.2755C6.84152 13.4254 6.71344 13.4325 6.57114 13.3612C6.37192 13.2613 6.17981 13.1614 5.9877 13.0543C5.8454 12.9687 5.71732 12.9687 5.56791 13.0543C5.22638 13.247 4.88485 13.4325 4.5291 13.6038C4.06661 13.8322 3.55432 13.5039 3.56144 12.9615Z" fill="#0060FF"/>
<path d="M18.2613 13.8889C18.5246 13.6177 18.7807 13.3537 19.044 13.0968C19.6061 12.533 20.1682 11.9692 20.7232 11.4055C21.2924 10.8203 21.3137 9.97106 20.7801 9.40729C20.2393 8.82925 19.3499 8.79357 18.738 9.31452C18.2044 9.77124 18.2756 9.74983 17.749 9.32165C17.5925 9.1932 17.4075 9.10043 17.2225 9.01479C17.0802 8.94343 16.9948 8.85779 17.0446 8.70079C17.0944 8.5438 17.2296 8.50098 17.3719 8.5652C17.5925 8.67225 17.806 8.79357 18.0194 8.92202C18.0977 8.96484 18.1617 9.0362 18.24 9.10756C18.3254 9.0362 18.4107 8.97197 18.489 8.90061C19.293 8.25834 20.4599 8.34398 21.1501 9.10756C21.826 9.85688 21.7975 10.9915 21.0647 11.7337C20.2251 12.5901 19.3713 13.4393 18.5246 14.2885C18.2756 14.5383 18.1973 14.5383 17.9483 14.2885C17.6779 14.0173 17.4075 13.739 17.1371 13.4678C17.0162 13.3465 16.9521 13.2181 17.0873 13.0825C17.2225 12.9469 17.3577 13.0111 17.4715 13.1324C17.7348 13.3751 17.991 13.6177 18.2613 13.8889Z" fill="#0060FF"/>
<path d="M5.75292 18.8776C4.78526 18.8776 3.8176 18.8776 2.85705 18.8776C2.79302 18.8776 2.71475 18.899 2.67206 18.8634C2.59379 18.8063 2.47995 18.7135 2.48707 18.6493C2.49418 18.5636 2.59379 18.4709 2.67917 18.4138C2.72187 18.3852 2.80013 18.4066 2.86417 18.4066C4.8066 18.4066 6.74192 18.4066 8.68435 18.4066C8.74839 18.4066 8.83377 18.3852 8.86935 18.4209C8.94761 18.478 9.04722 18.5708 9.04722 18.6493C9.04722 18.7278 8.94761 18.8134 8.86935 18.8705C8.82665 18.899 8.74839 18.8848 8.68435 18.8848C7.70246 18.8776 6.72769 18.8776 5.75292 18.8776Z" fill="#0060FF" stroke="#0060FF" stroke-width="0.144971" stroke-miterlimit="10"/>
<path d="M18.2329 18.8776C17.2652 18.8776 16.2976 18.8776 15.337 18.8776C15.273 18.8776 15.1947 18.899 15.152 18.8634C15.0738 18.8063 14.9599 18.7135 14.967 18.6493C14.9741 18.5636 15.0809 18.478 15.1591 18.4138C15.1876 18.3852 15.2516 18.4066 15.3014 18.4066C17.2652 18.4066 19.2219 18.4066 21.1857 18.4066C21.2426 18.4066 21.3208 18.3924 21.3493 18.4209C21.4205 18.4851 21.5272 18.5708 21.5272 18.6493C21.5272 18.7278 21.4276 18.8134 21.3493 18.8705C21.3066 18.899 21.2283 18.8848 21.1643 18.8848C20.1824 18.8776 19.2076 18.8776 18.2329 18.8776Z" fill="#0060FF" stroke="#0060FF" stroke-width="0.144971" stroke-miterlimit="10"/>
<path d="M11.9929 5.18994C12.4483 5.18994 12.9036 5.19708 13.359 5.18994C13.5511 5.18994 13.7005 5.24703 13.8286 5.39689C14.2413 5.87503 14.6682 6.33889 15.088 6.81702C15.3157 7.07392 15.3086 7.25947 15.0738 7.50924C14.1701 8.45837 13.2594 9.41463 12.3487 10.3638C12.1067 10.6135 11.8791 10.6135 11.6371 10.3638C10.7335 9.4289 9.83701 8.48691 8.9405 7.54492C8.68436 7.27374 8.67724 7.10247 8.91916 6.82415C9.33895 6.34602 9.75874 5.87503 10.1714 5.39689C10.2924 5.25417 10.4347 5.19708 10.6197 5.19708C11.0679 5.18994 11.5304 5.18994 11.9929 5.18994ZM11.9858 10.0355C12.9107 9.06495 13.8215 8.10869 14.7393 7.14529C14.3053 6.66002 13.8926 6.18902 13.4728 5.72516C13.4302 5.67521 13.3305 5.66094 13.2594 5.66094C12.4127 5.6538 11.5731 5.6538 10.7264 5.66094C10.6268 5.66094 10.5058 5.71803 10.4418 5.78939C10.1287 6.1248 9.83701 6.46734 9.53817 6.80988C9.23934 7.15242 9.23934 7.15242 9.5524 7.48069C10.3564 8.32991 11.1604 9.172 11.9858 10.0355Z" fill="#0060FF"/>
<path d="M11.9715 13.2037C11.0039 13.2037 10.0433 13.2037 9.07566 13.2037C9.01162 13.2037 8.93336 13.2251 8.89067 13.1895C8.8124 13.1324 8.70567 13.0467 8.70567 12.9682C8.70567 12.8897 8.79817 12.7898 8.87644 12.7399C8.93336 12.7042 9.02585 12.7256 9.10412 12.7256C11.0323 12.7256 12.9605 12.7256 14.8958 12.7256C14.9741 12.7256 15.0666 12.7113 15.1235 12.7542C15.1947 12.8041 15.2729 12.904 15.2658 12.9825C15.2587 13.0539 15.1733 13.1466 15.0951 13.1895C15.0381 13.2251 14.9457 13.2037 14.8674 13.2037C13.9068 13.2037 12.9392 13.2037 11.9715 13.2037Z" fill="#0060FF"/>
<path d="M12 15.2875C11.0323 15.2875 10.0718 15.2875 9.10412 15.2875C9.04008 15.2875 8.96182 15.3089 8.91913 15.2804C8.83374 15.2162 8.7199 15.1305 8.71279 15.0378C8.70567 14.9735 8.83374 14.8808 8.91913 14.8237C8.9547 14.7951 9.02585 14.8165 9.08277 14.8165C11.0252 14.8165 12.9676 14.8165 14.9172 14.8165C14.967 14.8165 15.031 14.7951 15.0666 14.8237C15.1449 14.8879 15.2587 14.9593 15.2801 15.0449C15.3156 15.1805 15.2089 15.2661 15.0737 15.2875C15.0097 15.2947 14.9456 15.2947 14.8816 15.2947C13.914 15.2875 12.9605 15.2875 12 15.2875Z" fill="#0060FF"/>
</svg>
