<svg width="23" height="22" viewBox="0 0 23 22" fill="none" xmlns="http://www.w3.org/2000/svg">
<path d="M19.75 3.60938H3.25C2.20638 3.61075 1.36075 4.45638 1.35938 5.5V16.5C1.36075 17.5436 2.20638 18.3892 3.25 18.3906H19.75C20.7936 18.3892 21.6392 17.5436 21.6406 16.5V5.5C21.6392 4.45638 20.7936 3.61075 19.75 3.60938ZM3.25 4.64062H19.75C20.2244 4.64131 20.6087 5.02562 20.6094 5.5V6.35938H2.39062V5.5C2.39131 5.02562 2.77562 4.64131 3.25 4.64062ZM19.75 17.3594H3.25C2.77562 17.3587 2.39131 16.9744 2.39062 16.5V7.39062H20.6094V16.5C20.6087 16.9744 20.2244 17.3587 19.75 17.3594ZM7.13094 12.1193C8.13125 12.1193 8.9425 11.308 8.9425 10.3077C8.9425 9.30737 8.13125 8.49612 7.13094 8.49612C6.13062 8.49612 5.31938 9.30737 5.31938 10.3077C5.32006 11.308 6.13062 12.1179 7.13094 12.1193ZM7.13094 9.52737C7.562 9.52737 7.91125 9.87663 7.91125 10.3077C7.91125 10.7388 7.562 11.088 7.13094 11.088C6.69987 11.088 6.35063 10.7388 6.35063 10.3077C6.35131 9.87663 6.69987 9.52806 7.13094 9.52737ZM7.13094 12.9326C5.65281 12.9388 4.41738 13.9707 4.09906 15.3526L4.09494 15.3739C4.08738 15.4069 4.08325 15.4447 4.08325 15.4839C4.08325 15.7685 4.31425 15.9995 4.59888 15.9995C4.84431 15.9995 5.04987 15.8276 5.10144 15.5973L5.10212 15.5939C5.31456 14.6547 6.14162 13.9638 7.13094 13.9638C8.12025 13.9638 8.94731 14.6548 9.157 15.5801L9.15975 15.5939C9.21269 15.8262 9.41756 15.9974 9.663 15.9974C9.94763 15.9974 10.1786 15.7664 10.1786 15.4818C10.1786 15.4433 10.1745 15.4062 10.1663 15.3698L10.1669 15.3732C9.8445 13.97 8.60975 12.9387 7.13231 12.9319L7.13094 12.9326ZM18.375 9.10938H12.875C12.5904 9.10938 12.3594 9.34037 12.3594 9.625C12.3594 9.90963 12.5904 10.1406 12.875 10.1406H18.375C18.6596 10.1406 18.8906 9.90963 18.8906 9.625C18.8906 9.34037 18.6596 9.10938 18.375 9.10938ZM18.375 11.8594H12.875C12.5904 11.8594 12.3594 12.0904 12.3594 12.375C12.3594 12.6596 12.5904 12.8906 12.875 12.8906H18.375C18.6596 12.8906 18.8906 12.6596 18.8906 12.375C18.8906 12.0904 18.6596 11.8594 18.375 11.8594ZM18.375 14.6094H12.875C12.5904 14.6094 12.3594 14.8404 12.3594 15.125C12.3594 15.4096 12.5904 15.6406 12.875 15.6406H18.375C18.6596 15.6406 18.8906 15.4096 18.8906 15.125C18.8906 14.8404 18.6596 14.6094 18.375 14.6094Z" fill="#0060FF"/>
</svg>
