<svg width="15" height="15" viewBox="0 0 15 15" fill="none" xmlns="http://www.w3.org/2000/svg">
<g opacity="0.4">
<path d="M7.6466 0.00702961C7.62132 0.00634615 7.59671 -0.000488281 7.57074 -0.000488281C7.56254 -0.000488281 7.55502 0.00156229 7.54682 0.00156229C7.5311 0.00156229 7.51606 -0.000488281 7.50034 -0.000488281C3.3647 -0.000488281 0 3.36421 0 7.49985C0 11.6355 3.3647 15.0002 7.50034 15.0002C7.51606 15.0002 7.5311 14.9981 7.54682 14.9981C7.55502 14.9981 7.56254 15.0002 7.57074 15.0002C7.59671 15.0002 7.62132 14.994 7.6466 14.9927C11.7139 14.9134 15 11.5856 15 7.49985C15 3.4141 11.7139 0.0863115 7.6466 0.00702961ZM12.94 4.67919H10.9484C10.7495 3.60752 10.4386 2.67323 10.0415 1.92483C11.2874 2.49552 12.3099 3.4681 12.94 4.67919ZM7.55228 1.36917C7.57006 1.36917 7.58782 1.37122 7.60628 1.37191C8.28086 1.41292 9.12904 2.61787 9.55689 4.67919H5.58459C6.01586 2.6001 6.87497 1.38968 7.55228 1.36917ZM1.36693 7.49985C1.36693 6.99819 1.43391 6.51293 1.54805 6.04612H4.00715C3.96615 6.5143 3.94291 6.99887 3.94291 7.49985C3.94291 7.93932 3.96341 8.36512 3.99485 8.77998H1.50294C1.41546 8.36649 1.36693 7.93932 1.36693 7.49985ZM1.9759 10.1469H4.16298C4.36666 11.3327 4.70497 12.36 5.14581 13.1617C3.75496 12.5807 2.62724 11.5002 1.9759 10.1469ZM4.19237 4.67919H2.05996C2.72224 3.40727 3.81442 2.39369 5.14581 1.83803C4.72616 2.6001 4.39878 3.56583 4.19237 4.67919ZM7.60628 13.6278C7.58851 13.6278 7.57074 13.6305 7.55228 13.6305C6.85652 13.6093 5.96665 12.334 5.54837 10.1469H9.59311C9.17825 12.3149 8.3 13.5854 7.60628 13.6278ZM9.77833 8.77998H5.36315C5.32897 8.374 5.30984 7.94821 5.30984 7.49985C5.30984 6.98726 5.33581 6.50336 5.37955 6.04612H9.76193C9.80567 6.50336 9.83164 6.98726 9.83164 7.49985C9.83164 7.94821 9.81182 8.374 9.77833 8.77998ZM10.0415 13.0749C10.4597 12.2862 10.7817 11.2903 10.9785 10.1469H13.0241C12.4028 11.438 11.3462 12.4775 10.0415 13.0749ZM11.1453 8.77998C11.1774 8.36512 11.1972 7.93932 11.1972 7.49985C11.1986 6.99887 11.1753 6.5143 11.1336 6.04612H13.4513C13.5654 6.51293 13.6324 6.99819 13.6324 7.49985C13.6324 7.93932 13.5839 8.36649 13.4957 8.77998H11.1453Z" fill="#1C1C1C" fill-opacity="0.8"/>
</g>
</svg>
