<svg width="145" height="130" viewBox="0 0 145 130" fill="none" xmlns="http://www.w3.org/2000/svg">
<path fill-rule="evenodd" clip-rule="evenodd" d="M116.532 51.9121H116.455L106.865 52.0521C103.967 52.0871 101.65 54.4741 101.692 57.3721C101.734 60.2421 104.072 62.5521 106.942 62.5521H107.019L116.609 62.4121C119.507 62.3701 121.824 59.9831 121.782 57.0851C121.74 54.2151 119.402 51.9121 116.532 51.9121Z" fill="#D9D9D9"/>
<path fill-rule="evenodd" clip-rule="evenodd" d="M101.304 43.4419C102.669 43.4419 104.034 42.9169 105.063 41.8529L111.755 34.9999C113.778 32.9279 113.736 29.6029 111.664 27.5729C109.592 25.5639 106.267 25.5849 104.237 27.6709L97.5449 34.5309C95.5219 36.5959 95.5639 39.9209 97.6359 41.9509C98.6579 42.9449 99.9809 43.4419 101.304 43.4419Z" fill="#D9D9D9"/>
<path fill-rule="evenodd" clip-rule="evenodd" d="M60.8383 99.9005V115.02C60.8383 117.96 58.4583 120.27 55.5883 120.27C52.7183 120.27 50.3383 117.96 50.3383 115.02V99.9005C50.3383 97.0305 52.7183 94.6505 55.5883 94.6505C58.4583 94.6505 60.8383 97.0305 60.8383 99.9005ZM97.0283 66.0203C91.9883 63.6403 86.1083 63.6403 74.4183 63.6403H36.6882C34.0982 63.6403 31.7882 63.6403 29.6882 63.7103V52.4893C29.9262 38.3703 41.1612 27.1633 55.2593 26.9883C64.4573 26.7363 73.3473 31.8533 78.0303 39.9663C79.4793 42.4793 82.6923 43.3473 85.2053 41.8983C87.7113 40.4563 88.5793 37.2433 87.1303 34.7303C80.6273 23.4463 68.5593 16.4883 55.5603 16.4883H55.1333C35.3162 16.7403 19.5242 32.4763 19.1882 52.4053V64.4103C17.2982 64.7603 15.6882 65.3203 14.1482 66.0203C9.03823 68.5403 5.04823 72.5305 2.66823 77.5705C0.218231 82.5405 0.218231 88.4205 0.218231 100.11V115.02C0.218231 126.71 0.218231 132.59 2.66823 137.63C5.11823 142.67 9.17823 146.73 14.1482 149.04C19.1182 151.49 24.9982 151.49 36.6882 151.49H74.4183C86.1783 151.49 91.9883 151.49 97.0283 149.11C101.998 146.73 106.058 142.67 108.508 137.63C110.888 132.59 110.888 126.71 110.888 115.02V100.11C110.888 88.4205 110.888 82.5405 108.508 77.5705C106.128 72.5305 102.138 68.5403 97.0283 66.0203Z" fill="#D9D9D9"/>
</svg>
