<svg width="145" height="130" viewBox="0 0 145 130" fill="none" xmlns="http://www.w3.org/2000/svg">
<path d="M28.0337 89.3893H-0.0294681C-3.01339 89.3893 -5.5 87.0093 -5.5 83.9993C-5.5 81.0593 -3.01339 78.6093 -0.0294681 78.6093H28.0337L28.0358 45.15C28.0358 28 42.4928 14 60.2026 14H95.4777C113.115 14 127.5 28 127.5 45.08V122.92C127.5 140.07 113.115 154 95.3332 154H60.1303C42.4928 154 28.0358 140.07 28.0358 122.99L28.0337 89.3893L72.8525 89.39L61.2869 100.59C59.1184 102.69 59.1184 106.12 61.2869 108.22C62.3712 109.27 63.8169 109.76 65.2626 109.76C66.636 109.76 68.0817 109.27 69.166 108.22L90.2732 87.85C91.3575 86.87 91.9358 85.47 91.9358 84C91.9358 82.6 91.3575 81.2 90.2732 80.22L69.166 59.85C66.9974 57.75 63.4555 57.75 61.2869 59.85C59.1184 61.95 59.1184 65.38 61.2869 67.48L72.8525 78.61L28.0337 78.6093V89.3893Z" fill="#D9D9D9"/>
</svg>
