<svg width="21" height="22" viewBox="0 0 21 22" fill="none" xmlns="http://www.w3.org/2000/svg">
<g clip-path="url(#clip0_99_2855)">
<path d="M18.9642 16.7341C18.4017 16.2327 17.9092 15.6578 17.5 15.025C17.0533 14.1515 16.7856 13.1975 16.7125 12.2192V9.33748C16.7164 7.80076 16.1589 6.31551 15.1449 5.1608C14.1309 4.00609 12.7302 3.2614 11.2058 3.06665V2.31415C11.2058 2.10761 11.1238 1.90953 10.9777 1.76349C10.8317 1.61745 10.6336 1.5354 10.4271 1.5354C10.2205 1.5354 10.0225 1.61745 9.87642 1.76349C9.73038 1.90953 9.64833 2.10761 9.64833 2.31415V3.07832C8.13765 3.28711 6.75382 4.0363 5.75314 5.18713C4.75247 6.33796 4.20276 7.81244 4.20583 9.33748V12.2192C4.13277 13.1975 3.86504 14.1515 3.41833 15.025C3.01635 15.6564 2.53178 16.2312 1.9775 16.7341C1.91528 16.7888 1.86541 16.8561 1.83121 16.9315C1.79701 17.007 1.77927 17.0888 1.77917 17.1716V17.965C1.77917 18.1197 1.84063 18.2681 1.95002 18.3775C2.05942 18.4869 2.20779 18.5483 2.3625 18.5483H18.5792C18.7339 18.5483 18.8823 18.4869 18.9916 18.3775C19.101 18.2681 19.1625 18.1197 19.1625 17.965V17.1716C19.1624 17.0888 19.1447 17.007 19.1105 16.9315C19.0763 16.8561 19.0264 16.7888 18.9642 16.7341ZM2.9925 17.3816C3.53524 16.8574 4.0131 16.2698 4.41583 15.6316C4.97852 14.5767 5.30684 13.4127 5.37833 12.2192V9.33748C5.3552 8.65384 5.46987 7.97253 5.71553 7.33412C5.96118 6.69572 6.33279 6.11327 6.80823 5.62148C7.28367 5.12968 7.85321 4.73858 8.48294 4.47148C9.11267 4.20437 9.78971 4.06672 10.4738 4.06672C11.1578 4.06672 11.8348 4.20437 12.4646 4.47148C13.0943 4.73858 13.6638 5.12968 14.1393 5.62148C14.6147 6.11327 14.9863 6.69572 15.232 7.33412C15.4776 7.97253 15.5923 8.65384 15.5692 9.33748V12.2192C15.6407 13.4127 15.969 14.5767 16.5317 15.6316C16.9344 16.2698 17.4123 16.8574 17.955 17.3816H2.9925Z" fill="#141414"/>
<path d="M10.5 20.4967C10.8675 20.4883 11.2201 20.3501 11.4955 20.1067C11.7709 19.8633 11.9514 19.5304 12.005 19.1667H8.93667C8.99178 19.5403 9.18069 19.881 9.46826 20.1257C9.75583 20.3703 10.1225 20.5022 10.5 20.4967Z" fill="#141414"/>
</g>
<defs>
<clipPath id="clip0_99_2855">
<rect width="21" height="21" fill="white" transform="translate(0 0.5)"/>
</clipPath>
</defs>
</svg>
