<svg width="145" height="130" viewBox="0 0 145 130" fill="none" xmlns="http://www.w3.org/2000/svg">
<path fill-rule="evenodd" clip-rule="evenodd" d="M127.999 123.224C127.915 116.672 123.036 112.031 116.281 105.605C114.643 104.044 112.858 102.35 110.968 100.46C102.218 91.7238 94.6791 94.6988 88.6171 97.0788C81.4421 99.8858 74.6591 102.581 62.2411 90.1698C49.8441 77.7728 52.5041 70.9758 55.3181 63.7868C57.6911 57.7248 60.6451 50.1788 51.9091 41.4498C49.9981 39.5458 48.2831 37.7398 46.7079 36.0738C40.3098 29.3328 35.6829 24.4678 29.1589 24.3838C23.2579 24.4608 17.6019 27.8838 8.80285 36.6898C8.70485 36.7738 8.27085 37.2218 8.18685 37.3268C6.23385 39.2308 1.05385 44.3058 0.997853 54.2108C0.927853 69.6248 13.3459 89.8828 37.9299 114.439C62.4301 138.939 82.6531 151.371 98.0601 151.371H98.2071C108.105 151.315 113.187 146.128 115.098 144.175L115.735 143.559C124.52 134.767 128.076 128.887 127.999 123.224Z" fill="#D9D9D9"/>
<path fill-rule="evenodd" clip-rule="evenodd" d="M93.0601 62.5146C90.1621 62.5146 87.8101 65.0346 87.8101 67.9326C87.8101 70.8309 90.1621 73.1829 93.0601 73.1829C95.9581 73.1829 98.3101 70.8309 98.3101 67.9326V67.5896C98.3101 64.6916 95.9581 62.5146 93.0601 62.5146Z" fill="#D9D9D9"/>
<path fill-rule="evenodd" clip-rule="evenodd" d="M81.8495 39.585C84.7475 39.585 87.0995 37.233 87.0995 34.335C87.0995 30.289 90.2775 27.125 94.3305 27.125C98.3205 27.125 101.561 30.359 101.561 34.335C101.561 35.84 101.183 38.052 97.7465 39.942L96.9625 40.383C93.7285 42.21 87.7085 45.612 87.8065 53.018C87.8415 55.895 90.1795 58.198 93.0565 58.198H93.1195C96.0175 58.156 98.3345 55.776 98.3065 52.878C98.2925 51.954 99.1185 51.226 102.128 49.525L102.891 49.084C108.806 45.85 112.061 40.607 112.061 34.335C112.061 24.563 104.109 16.625 94.3305 16.625C84.5585 16.625 76.5995 24.563 76.5995 34.335C76.5995 37.233 78.9515 39.585 81.8495 39.585Z" fill="#D9D9D9"/>
</svg>
