<svg width="15" height="15" viewBox="0 0 15 15" fill="none" xmlns="http://www.w3.org/2000/svg">
<g opacity="0.4">
<path d="M7.61248 6.74388C7.54335 6.74426 7.47498 6.72926 7.41235 6.70007C7.34967 6.67095 7.29423 6.62826 7.24998 6.57513L4.37498 3.12513C4.29812 3.0392 4.25562 2.92794 4.25562 2.81263C4.25562 2.69733 4.29812 2.58608 4.37498 2.50013L5.51248 1.33763C5.55691 1.29145 5.61033 1.25487 5.66946 1.23014C5.72858 1.20542 5.79215 1.19308 5.85623 1.19388H9.30623C9.43048 1.194 9.54967 1.24345 9.63748 1.33138L10.7687 2.45638C10.8488 2.53909 10.8961 2.64805 10.9019 2.76302C10.9075 2.87797 10.8714 2.9911 10.8 3.08138L7.97498 6.56263C7.93229 6.61795 7.87729 6.66257 7.81442 6.69295C7.75148 6.72332 7.68235 6.73863 7.61248 6.73763V6.74388ZM5.36873 2.85013L7.60623 5.53763L9.80623 2.82513L9.11248 2.13138H6.05623L5.36873 2.85013Z" fill="#1C1C1C" fill-opacity="0.8"/>
<path d="M7.58747 13.2373C6.7059 13.2363 5.84441 12.9743 5.1116 12.4843C4.3788 11.9943 3.80754 11.2982 3.46991 10.4839C3.13228 9.66959 3.0434 8.77353 3.21448 7.90872C3.38557 7.04397 3.80896 6.2492 4.43122 5.62478C4.47414 5.57872 4.52589 5.54178 4.58339 5.51617C4.64089 5.49055 4.70296 5.47677 4.7659 5.47566C4.82883 5.47455 4.89135 5.48613 4.94972 5.5097C5.00809 5.53328 5.06111 5.56837 5.10562 5.61288C5.15013 5.65739 5.18523 5.71041 5.2088 5.76878C5.23238 5.82715 5.24395 5.88967 5.24285 5.9526C5.24173 6.01555 5.22796 6.07762 5.20234 6.13512C5.17672 6.19262 5.13978 6.24437 5.09372 6.28728C4.60285 6.78109 4.26923 7.40922 4.13492 8.0924C4.00062 8.77565 4.07165 9.48334 4.33907 10.1262C4.60649 10.7691 5.05831 11.3183 5.63753 11.7048C6.21676 12.0912 6.89747 12.2973 7.59372 12.2973C8.29003 12.2973 8.97072 12.0912 9.5499 11.7048C10.1292 11.3183 10.581 10.7691 10.8484 10.1262C11.1158 9.48334 11.1868 8.77565 11.0525 8.0924C10.9182 7.40922 10.5846 6.78109 10.0937 6.28728C10.006 6.19938 9.95665 6.08025 9.95665 5.95603C9.95665 5.83181 10.006 5.71267 10.0937 5.62478C10.1368 5.58055 10.1883 5.54541 10.2452 5.52141C10.3021 5.49741 10.3632 5.48505 10.425 5.48505C10.4867 5.48505 10.5478 5.49741 10.6047 5.52141C10.6617 5.54541 10.7132 5.58055 10.7562 5.62478C11.3807 6.24888 11.8059 7.04415 11.9782 7.91003C12.1505 8.77584 12.0622 9.67334 11.7243 10.489C11.3864 11.3046 10.8142 12.0017 10.08 12.492C9.3459 12.9823 8.48278 13.2438 7.59997 13.2435L7.58747 13.2373Z" fill="#1C1C1C" fill-opacity="0.8"/>
</g>
</svg>
