<svg width="25" height="24" viewBox="0 0 25 24" fill="none" xmlns="http://www.w3.org/2000/svg">
<path d="M13.5 11L18.5 6" stroke="#808080" stroke-width="1.5"/>
<path d="M19.5 7L17.5 5L20 3.5L21 4.5L19.5 7Z" stroke="#808080" stroke-width="1.5" stroke-linejoin="round"/>
<path d="M4.52513 8.97487C3.51416 7.96391 3.25095 6.48836 3.73548 5.23548L5.15748 6.65748H7.15748V4.65748L5.73548 3.23548C6.98836 2.75095 8.46391 3.01416 9.47487 4.02513C10.4862 5.03647 10.7493 6.51274 10.264 7.76593L16.7341 14.236C17.9873 13.7507 19.4635 14.0138 20.4749 15.0251C21.4858 16.0361 21.7491 17.5116 21.2645 18.7645L19.8425 17.3425H17.8425V19.3425L19.2645 20.7645C18.0116 21.2491 16.5361 20.9858 15.5251 19.9749C14.5145 18.9643 14.2511 17.4895 14.7349 16.2369L8.26312 9.76507C7.01053 10.2489 5.53571 9.98546 4.52513 8.97487Z" stroke="#808080" stroke-width="1.5" stroke-linejoin="round"/>
<path d="M12.703 14.5L7.09897 20.1041C6.57115 20.6319 5.7154 20.6319 5.18758 20.1041L4.39586 19.3124C3.86805 18.7846 3.86805 17.9288 4.39586 17.401L9.99994 11.7969" stroke="#808080" stroke-width="1.5" stroke-linejoin="round"/>
</svg>
