<svg width="15" height="15" viewBox="0 0 15 15" fill="none" xmlns="http://www.w3.org/2000/svg">
<g opacity="0.4" clip-path="url(#clip0_126_1611)">
<path d="M13.7741 2.34758H9.65692V1.65349C9.65692 0.977896 9.10689 0.428223 8.43165 0.428223H6.56782C5.89252 0.428223 5.34255 0.977896 5.34255 1.65349V2.34764H1.22526C0.54938 2.34758 0 2.89761 0 3.57291V13.3464C0 14.0217 0.54938 14.5717 1.22526 14.5717H13.774C14.45 14.5717 14.9999 14.0217 14.9999 13.3465V3.57291C14.9996 2.89761 14.45 2.34758 13.7741 2.34758ZM5.98166 1.65349C5.98166 1.33009 6.24436 1.06738 6.56776 1.06738H8.43159C8.75499 1.06738 9.0177 1.33009 9.0177 1.65349V2.34764H5.98166V1.65349ZM14.3605 13.3464C14.3605 13.6698 14.0971 13.9325 13.7737 13.9325H1.22526C0.901864 13.9325 0.63916 13.6698 0.63916 13.3464V8.7792H14.3608V13.3464H14.3605ZM14.3605 8.14004H0.63916V3.57285C0.63916 3.24945 0.901864 2.98674 1.22526 2.98674H5.34244H5.9816H9.01764H9.6568H13.774C14.0974 2.98674 14.3607 3.24945 14.3607 3.57285V8.14004H14.3605Z" fill="#1C1C1C" fill-opacity="0.8"/>
</g>
<defs>
<clipPath id="clip0_126_1611">
<rect width="15" height="15" fill="white"/>
</clipPath>
</defs>
</svg>
